<svg version="1.1" xmlns="http://www.w3.org/2000/svg" viewBox="0 0 1116.25 719.7573231636711" width="1116.25" height="719.7573231636711">
  <!-- svg-source:excalidraw -->
  
  <defs>
    <style class="style-fonts">
      @font-face {
        font-family: "Virgil";
        src: url("https://excalidraw.com/Virgil.woff2");
      }
      @font-face {
        font-family: "Cascadia";
        src: url("https://excalidraw.com/Cascadia.woff2");
      }
    </style>
    
  </defs>
  <rect x="0" y="0" width="1116.25" height="719.7573231636711" fill="#ffffff"></rect><g stroke-opacity="0" fill-opacity="0" stroke-linecap="round" transform="translate(69.37133841816444 372.00000000000006) rotate(0 58.378661581835615 58.378661581835615)"><path d="M79.82 4.24 C88.31 6.82, 97.77 14.23, 103.67 21.09 C109.56 27.96, 113.38 36.69, 115.19 45.42 C117.01 54.15, 117.05 64.54, 114.56 73.47 C112.07 82.4, 106.33 92.28, 100.25 98.99 C94.17 105.7, 86.55 110.94, 78.08 113.72 C69.6 116.49, 58.59 117.12, 49.39 115.64 C40.2 114.15, 30.1 110, 22.91 104.79 C15.71 99.59, 10.13 92.32, 6.21 84.42 C2.3 76.51, -0.75 66.43, -0.58 57.35 C-0.4 48.28, 2.54 37.91, 7.25 29.95 C11.96 22, 19.99 14.55, 27.67 9.63 C35.36 4.71, 44.05 1.07, 53.36 0.44 C62.67 -0.19, 78.47 4.69, 83.52 5.83 C88.56 6.98, 84.23 6.39, 83.64 7.3 M43.33 2.42 C51.24 -0.63, 61.91 -0.84, 70.53 1.1 C79.14 3.04, 88.1 8.29, 95.01 14.05 C101.93 19.8, 108.27 27.49, 112.01 35.65 C115.76 43.81, 118.24 54.01, 117.46 62.98 C116.69 71.95, 112.69 81.49, 107.36 89.46 C102.04 97.43, 93.15 106.39, 85.5 110.8 C77.85 115.21, 70.2 115.98, 61.46 115.91 C52.72 115.84, 41.56 114.47, 33.06 110.39 C24.55 106.31, 15.76 98.66, 10.44 91.41 C5.11 84.16, 2.13 75.78, 1.12 66.91 C0.11 58.03, 1.54 46.82, 4.39 38.15 C7.25 29.48, 11.64 20.68, 18.25 14.87 C24.85 9.06, 39.87 5.38, 44 3.3 C48.13 1.22, 43.01 1.73, 43.02 2.36" stroke="#1e1e1e" stroke-width="1" fill="none"></path></g><g stroke-linecap="round" transform="translate(105.30451854118769 382.0624897865028) rotate(0 22.445481458812083 34.32736593007303)"><path d="M-1.83 -0.82 C10.99 -0.77, 26.48 -0.2, 44.35 -1.44 M0.59 0.67 C13.37 0.09, 26 -0.58, 44.29 0.33 M44.31 0.53 C46.43 24.55, 44.98 48.37, 46.74 69.81 M45.62 -0.54 C45.37 18.37, 45.29 37.81, 44.71 68.5 M44.17 69.94 C32.89 68.62, 22.14 66.66, 1.99 70.63 M44.34 67.7 C34.21 68.47, 23.65 67.85, -0.16 68.06 M-1.16 68.21 C-1.47 43, 1 18.31, -1.85 0.96 M-0.33 68.8 C-0.68 49.94, 0.26 30.1, 0.27 0.34" stroke="#1e1e1e" stroke-width="1" fill="none"></path></g><g stroke-linecap="round" transform="translate(110.44404030282249 387.29676607095627) rotate(0 17.68634444021592 26.254098365838104)"><path d="M-1.82 -0.41 C14.26 0.3, 26.25 -1.29, 35.27 -1.2 M0.15 -0.19 C7.95 -1.1, 16.22 0.09, 35.87 -0.6 M37.33 0.56 C35.72 20.1, 37.07 40.56, 34.85 52.77 M35.76 -0.43 C36.06 14.78, 35.58 28.99, 34.79 52.78 M34.25 52.58 C24.61 50.85, 17.85 54.71, -1.1 53.02 M35.69 52.45 C26.48 51.48, 15.89 51.58, 0.76 53.31 M-0.92 52.68 C1.85 38.59, -1.54 23.02, -0.49 1.44 M-0.19 52.7 C0.92 33.66, 0.44 16.66, -0.7 -0.16" stroke="#1e1e1e" stroke-width="1" fill="none"></path></g><g stroke-linecap="round" transform="translate(124.50830199824463 442.0520922638157) rotate(0 3.622082744793545 3.622082744793545)"><path d="M3.71 -0.6 C4.39 -0.4, 4.74 0.88, 5.43 1.53 C6.13 2.17, 7.7 2.68, 7.88 3.28 C8.06 3.88, 7.17 4.57, 6.5 5.1 C5.83 5.63, 4.52 6.08, 3.87 6.47 C3.21 6.87, 3.25 7.54, 2.58 7.47 C1.9 7.4, 0.28 6.79, -0.19 6.06 C-0.65 5.34, -0.64 3.96, -0.21 3.12 C0.22 2.28, 1.58 1.51, 2.38 1.04 C3.19 0.57, 4.04 0.3, 4.62 0.28 C5.2 0.25, 5.95 0.85, 5.86 0.9 M3.8 -0.62 C4.43 -0.57, 5.59 0.42, 6.09 0.92 C6.6 1.42, 6.83 1.6, 6.83 2.36 C6.83 3.12, 6.4 4.82, 6.07 5.48 C5.75 6.14, 5.26 6.19, 4.87 6.33 C4.48 6.46, 4.42 6.52, 3.73 6.3 C3.05 6.08, 1.62 5.25, 0.76 5.02 C-0.1 4.78, -1.69 5.67, -1.41 4.89 C-1.12 4.1, 1.64 1.18, 2.48 0.3 C3.31 -0.58, 3.61 -0.11, 3.6 -0.38 C3.59 -0.65, 2.38 -1.45, 2.4 -1.34" stroke="#1e1e1e" stroke-width="1" fill="none"></path></g><g stroke-linecap="round" transform="translate(115.69258520744597 393.9807695931543) rotate(0 12.437799535592092 6.304023542482355)"><path d="M-0.54 -1.44 C6.84 -1.22, 12.65 1.16, 26.21 0.3 M-0.6 0.33 C7.49 -0.39, 14.74 -0.08, 25.14 0.98 M26.04 0.73 C24.58 4.3, 24.62 9.19, 24.2 13.1 M24.76 -0.1 C24.55 3.41, 24.76 6.25, 25.28 12.25 M26.86 14.58 C16.23 12.88, 9.24 11.28, -1.91 13.25 M24.72 12.01 C18.33 13.24, 10.15 11.86, -0.22 12.15 M-1.16 13.21 C-0.41 9.63, 0.47 4.42, 0.19 -0.24 M0.17 12.82 C-0.54 8.49, 0.49 4.85, -0.38 0.13" stroke="#1e1e1e" stroke-width="1" fill="none"></path></g><g stroke-linecap="round" transform="translate(115.69258520744597 416.5210448073636) rotate(0 12.437799535592092 6.304023542482355)"><path d="M-0.11 -1.2 C6.41 1.35, 16.65 0.47, 24.5 -0.91 M0.49 -0.6 C6.07 -0.37, 10.91 0.9, 25.16 0.25 M24.55 0.16 C24.71 4.95, 24.31 8.56, 24.33 13 M24.51 0.17 C24.7 3.82, 25.26 7.74, 24.9 12.29 M23.78 13.12 C19.22 11.76, 12.73 13.5, -0.12 14.14 M25.64 13.41 C19.02 11.88, 13.14 12, 0.08 13.38 M-0.31 13.51 C0.68 7.59, 0.3 3.16, 0.24 0.95 M-0.44 12.51 C0.55 10.06, -0.41 7.08, -0.56 -0.29" stroke="#1e1e1e" stroke-width="1" fill="none"></path></g><g transform="translate(59.05833053588867 453.69483337716844) rotate(0 70.30000305175781 12)"><text x="70.30000305175781" y="0" font-family="Cascadia, Segoe UI Emoji" font-size="20px" fill="#1e1e1e" text-anchor="middle" style="white-space: pre;" direction="ltr" dominant-baseline="text-before-edge">weave-mobile</text></g><g stroke-opacity="0" fill-opacity="0" stroke-linecap="round" transform="translate(481.37133841816444 10) rotate(0 58.378661581835615 58.378661581835615)"><path d="M53.49 -0.01 C61.93 -1.43, 72.26 1.61, 80.47 5.13 C88.68 8.65, 96.99 14.43, 102.74 21.13 C108.49 27.82, 112.84 36.3, 114.98 45.3 C117.12 54.3, 118.03 66.25, 115.57 75.16 C113.12 84.06, 106.68 92.42, 100.26 98.73 C93.83 105.05, 85.66 110.11, 77.04 113.05 C68.42 116, 57.42 117.56, 48.52 116.4 C39.62 115.24, 30.85 111.55, 23.62 106.09 C16.4 100.64, 9.18 91.81, 5.15 83.67 C1.12 75.53, -1.1 66.29, -0.56 57.26 C-0.02 48.23, 3.93 37.53, 8.39 29.5 C12.85 21.46, 17.59 13.96, 26.2 9.07 C34.82 4.17, 53.04 1.21, 60.08 0.12 C67.11 -0.96, 68.52 1.54, 68.41 2.57 M50.7 0.67 C58.89 -1.31, 69.92 1.06, 78.65 4.02 C87.38 6.98, 96.97 11.63, 103.1 18.42 C109.23 25.21, 113.6 35.84, 115.43 44.77 C117.25 53.69, 116.02 63.14, 114.04 71.95 C112.07 80.77, 109.52 90.76, 103.57 97.64 C97.62 104.52, 87.23 110.22, 78.33 113.23 C69.43 116.23, 59.1 116.74, 50.18 115.66 C41.26 114.58, 31.87 111.71, 24.81 106.75 C17.74 101.79, 12.14 93.68, 7.79 85.89 C3.43 78.1, -1.12 68.98, -1.33 59.99 C-1.54 50.99, 2.3 40.32, 6.55 31.91 C10.8 23.51, 16.8 14.89, 24.18 9.56 C31.56 4.23, 46.17 1.29, 50.84 -0.09 C55.51 -1.46, 52.15 0.51, 52.2 1.33" stroke="#1e1e1e" stroke-width="1" fill="none"></path></g><g transform="translate(408.81666564941406 92.95128307770528) rotate(0 158.1750030517578 12)"><text x="158.1750030517578" y="0" font-family="Cascadia, Segoe UI Emoji" font-size="20px" fill="#1e1e1e" text-anchor="middle" style="white-space: pre;" direction="ltr" dominant-baseline="text-before-edge">WebSocket signalling server</text></g><g stroke-linecap="round" transform="translate(545.1158200015225 18.806040085965833) rotate(0 18.63417999847718 34.78380266382396)"><path d="M0.54 -0.48 C9.8 1.5, 19.91 0.28, 36.26 -1.89 M0.26 -0.27 C14.33 -0.75, 30.09 0.14, 38.03 -0.69 M38.87 -0.2 C35.7 19.32, 35.94 39.69, 38.82 70.87 M37.99 0.45 C37.28 14.6, 37.41 29.09, 38.02 68.81 M36.94 71.42 C25.98 68.1, 13.33 67.54, -0.92 68.85 M36.38 70.53 C25.45 69.98, 13.11 69.05, -0.23 69.21 M-1.82 68.06 C0.01 46.43, -1.44 20.75, -1.83 0.68 M0.69 68.75 C-0.4 47.3, -0.65 26.48, -0.02 0" stroke="#1e1e1e" stroke-width="1" fill="none"></path></g><g stroke-linecap="round"><g transform="translate(549.8875628665364 26.501990751921426) rotate(0 14.526113634901378 -0.5996383672313925)"><path d="M-0.29 -0.43 C4.72 -0.6, 24.52 -0.65, 29.34 -0.68 M1.76 -1.7 C6.73 -1.76, 24.45 0.16, 28.8 0.51" stroke="#1e1e1e" stroke-width="1" fill="none"></path></g></g><mask></mask><g stroke-linecap="round"><g transform="translate(548.9756601677645 32.90578852952979) rotate(0 14.164214219018163 0.41599916414014615)"><path d="M0.77 -0.68 C5.59 -0.7, 24.17 -0.92, 28.61 -0.61 M-0.29 1.58 C4.4 1.74, 22.68 0.97, 27.69 0.61" stroke="#1e1e1e" stroke-width="1" fill="none"></path></g></g><mask></mask><g stroke-linecap="round"><g transform="translate(549.1018960439969 39.30958630713906) rotate(0 14.081651485544 0.5440778491084188)"><path d="M0.04 -0.61 C4.49 -0.29, 22.49 1.2, 27.44 1.19 M-1.4 1.69 C3.33 1.76, 24.39 -0.07, 29.56 -0.3" stroke="#1e1e1e" stroke-width="1" fill="none"></path></g></g><mask></mask><g stroke-linecap="round"><g transform="translate(549.0163606752267 45.71338408474787) rotate(0 14.31276028712307 0.2664114117623626)"><path d="M-1.13 1.19 C3.82 1.18, 24.75 -0.41, 29.76 -0.66 M0.48 0.77 C5.37 0.96, 24.8 0.52, 29.43 0.53" stroke="#1e1e1e" stroke-width="1" fill="none"></path></g></g><mask></mask><g stroke-linecap="round" transform="translate(570.5570696214158 52.64160978079826) rotate(0 3.320581637643386 2.4149684637405784)"><path d="M2.79 0.34 C3.5 0.59, 5.17 1.24, 5.7 1.54 C6.23 1.84, 6.01 1.63, 5.95 2.14 C5.9 2.66, 5.55 4.22, 5.37 4.64 C5.18 5.06, 5.54 4.72, 4.85 4.67 C4.16 4.62, 2.06 4.55, 1.22 4.34 C0.38 4.13, -0.15 3.76, -0.2 3.43 C-0.25 3.1, 0.79 2.78, 0.92 2.35 C1.06 1.92, 0.12 1.12, 0.6 0.86 C1.09 0.6, 3.13 0.95, 3.84 0.78 C4.55 0.62, 4.79 -0.03, 4.85 -0.14 M4.04 0.52 C4.35 0.69, 3.97 0.08, 4.63 0.48 C5.29 0.87, 7.94 2.28, 8.02 2.89 C8.1 3.5, 5.99 3.94, 5.13 4.13 C4.26 4.33, 3.46 3.94, 2.84 4.06 C2.21 4.18, 1.61 4.9, 1.36 4.84 C1.11 4.77, 1.76 3.93, 1.33 3.66 C0.9 3.39, -1.22 3.68, -1.21 3.22 C-1.21 2.77, 0.71 1.63, 1.37 0.95 C2.02 0.27, 2.41 -0.62, 2.73 -0.85 C3.05 -1.09, 2.99 -0.61, 3.28 -0.47" stroke="#1e1e1e" stroke-width="1" fill="none"></path></g><g stroke-opacity="0" fill-opacity="0" stroke-linecap="round" transform="translate(988.3713384181644 357.00000000000006) rotate(0 58.37866158183567 58.378661581835615)"><path d="M63.42 -0.6 C72.13 -0.8, 82.07 4.28, 89.51 9.16 C96.94 14.04, 103.34 20.86, 108.03 28.68 C112.71 36.49, 117.17 46.97, 117.62 56.07 C118.06 65.16, 114.81 75.21, 110.69 83.25 C106.57 91.3, 100.04 98.87, 92.89 104.34 C85.74 109.82, 76.44 114.48, 67.79 116.09 C59.13 117.71, 49.65 116.71, 40.96 114.04 C32.27 111.37, 22.1 106.52, 15.67 100.08 C9.24 93.63, 4.9 84.29, 2.37 75.36 C-0.15 66.43, -1.22 55.51, 0.5 46.52 C2.21 37.53, 6.81 28.4, 12.67 21.42 C18.54 14.44, 26.65 8.25, 35.7 4.65 C44.76 1.05, 61.07 0.13, 67 -0.19 C72.94 -0.5, 71.22 1.79, 71.3 2.77 M72.46 1.52 C81.24 2.82, 90.6 9.81, 97.14 15.72 C103.69 21.63, 108.77 28.86, 111.74 36.96 C114.71 45.06, 115.93 55.22, 114.94 64.31 C113.95 73.41, 110.72 83.92, 105.82 91.52 C100.91 99.12, 93.45 105.62, 85.5 109.91 C77.56 114.21, 67.18 117.05, 58.16 117.3 C49.14 117.56, 39.36 115.68, 31.39 111.45 C23.42 107.22, 15.44 99.78, 10.32 91.91 C5.2 84.03, 1.86 73.29, 0.66 64.18 C-0.53 55.07, -0.16 45.49, 3.12 37.24 C6.41 28.99, 13.61 20.77, 20.38 14.68 C27.15 8.6, 34.9 3.08, 43.77 0.73 C52.63 -1.63, 68.73 0.13, 73.59 0.55 C78.46 0.96, 73.26 2.28, 72.95 3.21" stroke="#1e1e1e" stroke-width="1" fill="none"></path></g><g stroke-linecap="round" transform="translate(1018.1368839459433 374.29350250811973) rotate(0 29.07051933023172 19.380346220154536)"><path d="M9.69 0 M9.69 0 C22.67 0.32, 37.91 -1.57, 48.45 0 M9.69 0 C22.2 1.2, 35.47 -0.33, 48.45 0 M48.45 0 C55.34 -1.76, 57.22 2.51, 58.14 9.69 M48.45 0 C55.28 1.57, 58.51 1.19, 58.14 9.69 M58.14 9.69 C56.96 16.26, 57.69 24.38, 58.14 29.07 M58.14 9.69 C57.22 15.89, 58.05 24.41, 58.14 29.07 M58.14 29.07 C56.57 36.5, 53.08 39.44, 48.45 38.76 M58.14 29.07 C58.3 35.25, 54.98 40.35, 48.45 38.76 M48.45 38.76 C38.52 37.6, 31.5 38.4, 9.69 38.76 M48.45 38.76 C37.33 39.82, 26.01 39.15, 9.69 38.76 M9.69 38.76 C3.55 37.12, -0.9 34.96, 0 29.07 M9.69 38.76 C4.32 38.77, -0.99 34.05, 0 29.07 M0 29.07 C0.64 22.64, -1.4 15.46, 0 9.69 M0 29.07 C-0.78 23.91, 0.44 16.67, 0 9.69 M0 9.69 C-1.01 4.96, 5.08 0.79, 9.69 0 M0 9.69 C-0.26 2.44, 5.11 1.55, 9.69 0" stroke="#1e1e1e" stroke-width="1" fill="none"></path></g><g stroke-linecap="round" transform="translate(1012.5915750915751 417.3684678249438) rotate(0 34.15842490842488 4.675677934232965)"><path d="M2.34 0 M2.34 0 C23.87 -1.63, 42.93 0.56, 65.98 0 M2.34 0 C17.4 -1.19, 31.79 -1.47, 65.98 0 M65.98 0 C66.61 -0.72, 68.64 2.15, 68.32 2.34 M65.98 0 C67.91 -2.04, 70.54 0.68, 68.32 2.34 M68.32 2.34 C68.18 3.74, 68.56 5.39, 68.32 7.01 M68.32 2.34 C68.26 3.7, 68.09 4.76, 68.32 7.01 M68.32 7.01 C66.49 9.25, 67.67 9.11, 65.98 9.35 M68.32 7.01 C68.39 10.16, 65.66 8.24, 65.98 9.35 M65.98 9.35 C52.75 9.09, 39.38 8.81, 2.34 9.35 M65.98 9.35 C44.56 10.18, 23.31 9.12, 2.34 9.35 M2.34 9.35 C-0.12 8.78, 0.95 8.58, 0 7.01 M2.34 9.35 C-0.21 7.87, 1.9 6.81, 0 7.01 M0 7.01 C-0.39 5.63, -0.01 3.81, 0 2.34 M0 7.01 C0.16 5.08, -0.08 3.72, 0 2.34 M0 2.34 C1.85 1.57, 0.56 -0.69, 2.34 0 M0 2.34 C1.88 2.33, 1.87 1.46, 2.34 0" stroke="#1e1e1e" stroke-width="1" fill="none"></path></g><g stroke-linecap="round" transform="translate(1062.959382697668 420.79290800212885) rotate(0 6.120820957724504 1.1798952533570173)"><path d="M0.59 0 M0.59 0 C4.41 0.46, 6.87 -0.1, 11.65 0 M0.59 0 C5.05 -0.42, 9.02 -0.13, 11.65 0 M11.65 0 C12.36 1.37, 12.56 -1.58, 12.24 0.59 M11.65 0 C14.27 -0.1, 13.05 -1.19, 12.24 0.59 M12.24 0.59 C12.31 0.85, 12.18 1.05, 12.24 1.77 M12.24 0.59 C12.19 0.88, 12.19 1.14, 12.24 1.77 M12.24 1.77 C12.38 1.92, 12.11 3.74, 11.65 2.36 M12.24 1.77 C10.36 1.05, 9.91 0.66, 11.65 2.36 M11.65 2.36 C8.66 2.2, 6.31 2.47, 0.59 2.36 M11.65 2.36 C7.4 1.93, 2.73 2.23, 0.59 2.36 M0.59 2.36 C1.14 2.37, -0.86 0.87, 0 1.77 M0.59 2.36 C2.1 0.59, 1.34 2.75, 0 1.77 M0 1.77 C0.01 1.39, 0.1 0.85, 0 0.59 M0 1.77 C-0.04 1.39, 0.05 0.93, 0 0.59 M0 0.59 C-0.22 -0.49, 1.83 1.35, 0.59 0 M0 0.59 C1.09 1.66, 2.45 2.02, 0.59 0" stroke="#1e1e1e" stroke-width="1" fill="none"></path></g><g stroke-linecap="round" transform="translate(1041.2712615754976 413.6586576329931) rotate(0 6.120820957724504 1.1798952533570173)"><path d="M0.59 0 M0.59 0 C2.3 -0.22, 6.58 0.45, 11.65 0 M0.59 0 C2.99 -0.1, 5.99 0.48, 11.65 0 M11.65 0 C12.37 -1.78, 14.18 0.11, 12.24 0.59 M11.65 0 C12.85 -1.39, 10.92 -0.33, 12.24 0.59 M12.24 0.59 C12.19 0.79, 12.16 1.21, 12.24 1.77 M12.24 0.59 C12.18 1.07, 12.24 1.5, 12.24 1.77 M12.24 1.77 C12.3 3.54, 10.41 1.39, 11.65 2.36 M12.24 1.77 C10.11 0.47, 11.12 2.32, 11.65 2.36 M11.65 2.36 C8.74 2.45, 6.04 2.34, 0.59 2.36 M11.65 2.36 C7.81 2.11, 4.73 2.27, 0.59 2.36 M0.59 2.36 C-0.67 1.07, 1.65 0.63, 0 1.77 M0.59 2.36 C1.53 2.95, 1.17 0.32, 0 1.77 M0 1.77 C0.09 1.25, 0.08 0.97, 0 0.59 M0 1.77 C0.06 1.53, 0 1.23, 0 0.59 M0 0.59 C1.63 1.55, 1.15 1.27, 0.59 0 M0 0.59 C2.26 2.21, 2.02 -0.25, 0.59 0" stroke="#1e1e1e" stroke-width="1" fill="none"></path></g><g stroke-linecap="round" transform="translate(1023.1300515946284 378.77772857857536) rotate(0 24.114462888662388 15.125362843360563)"><path d="M7.56 0 M7.56 0 C20.48 0.94, 28.48 0.48, 40.67 0 M7.56 0 C14.74 0.8, 21.75 -0.77, 40.67 0 M40.67 0 C47.64 -0.09, 48.93 1.31, 48.23 7.56 M40.67 0 C44.38 -0.53, 47.42 3.85, 48.23 7.56 M48.23 7.56 C47.01 11.74, 49.48 14.91, 48.23 22.69 M48.23 7.56 C48.14 12.74, 48.11 18.62, 48.23 22.69 M48.23 22.69 C46.59 26.76, 43.85 28.77, 40.67 30.25 M48.23 22.69 C47.31 27.69, 45.71 30.01, 40.67 30.25 M40.67 30.25 C33.05 30.27, 22.25 30.6, 7.56 30.25 M40.67 30.25 C33.92 30.16, 25.81 29.51, 7.56 30.25 M7.56 30.25 C4.17 28.72, 1.16 28.24, 0 22.69 M7.56 30.25 C3.69 28.41, 1.45 27.73, 0 22.69 M0 22.69 C0.91 18.47, -1.33 11.91, 0 7.56 M0 22.69 C-0.22 16.58, 0.48 11.51, 0 7.56 M0 7.56 C0.95 3.79, 4.48 1.75, 7.56 0 M0 7.56 C1.82 2.27, 1.86 0.76, 7.56 0" stroke="#1e1e1e" stroke-width="1" fill="none"></path></g><g transform="translate(1017.8250007629395 431.4638206555513) rotate(0 29.29166603088379 12)"><text x="29.29166603088379" y="0" font-family="Cascadia, Segoe UI Emoji" font-size="20px" fill="#1e1e1e" text-anchor="middle" style="white-space: pre;" direction="ltr" dominant-baseline="text-before-edge">weave</text></g><g stroke-opacity="0" fill-opacity="0" stroke-linecap="round" transform="translate(518.3713384181644 593) rotate(0 58.37866158183567 58.378661581835615)"><path d="M46.42 1.7 C54.56 -1.24, 65.27 -0.71, 73.79 1.68 C82.3 4.06, 90.82 9.78, 97.52 16.02 C104.22 22.25, 110.91 30.73, 113.98 39.1 C117.06 47.47, 117.23 57.44, 115.98 66.22 C114.74 75, 111.86 84.52, 106.54 91.78 C101.21 99.04, 92.34 105.71, 84.04 109.77 C75.74 113.83, 65.65 116.31, 56.74 116.13 C47.82 115.95, 38.56 112.95, 30.57 108.68 C22.57 104.4, 13.96 97.85, 8.77 90.46 C3.59 83.08, 0.33 73.26, -0.54 64.38 C-1.42 55.5, -0.09 45.72, 3.53 37.16 C7.14 28.61, 13.82 19.11, 21.17 13.03 C28.52 6.94, 42.56 2.6, 47.64 0.67 C52.72 -1.26, 51.32 0.37, 51.67 1.44 M40.75 1.35 C48.41 -2.29, 58.58 -1.35, 67.48 0.66 C76.38 2.67, 86.97 7.57, 94.16 13.42 C101.36 19.27, 106.69 27.68, 110.65 35.78 C114.6 43.87, 118.1 52.94, 117.89 61.98 C117.68 71.02, 114.38 82.08, 109.38 90.02 C104.39 97.96, 96.04 105.11, 87.92 109.61 C79.79 114.11, 69.7 116.68, 60.62 117.03 C51.55 117.39, 41.68 115.37, 33.47 111.74 C25.26 108.1, 16.74 102.29, 11.34 95.22 C5.94 88.15, 2.5 78.56, 1.09 69.31 C-0.31 60.07, 0.23 48.57, 2.92 39.73 C5.61 30.89, 11.01 22.26, 17.22 16.27 C23.44 10.29, 36.15 6.14, 40.22 3.84 C44.29 1.55, 41.42 1.82, 41.65 2.51" stroke="#1e1e1e" stroke-width="1" fill="none"></path></g><g transform="translate(513.841667175293 675.9512830777053) rotate(0 64.44166564941406 12)"><text x="64.44166564941406" y="0" font-family="Cascadia, Segoe UI Emoji" font-size="20px" fill="#1e1e1e" text-anchor="middle" style="white-space: pre;" direction="ltr" dominant-baseline="text-before-edge">STUN server</text></g><g stroke-linecap="round" transform="translate(558.1158200015225 601.8060400859658) rotate(0 18.63417999847718 34.78380266382396)"><path d="M1.93 0.5 C10.31 -0.91, 18.29 0.89, 38.57 0.84 M-0.64 -0.51 C9.62 -0.84, 20.19 -0.01, 36.38 -0.96 M35.95 0.97 C38.06 17.64, 35.94 38.58, 39.12 69.08 M37.51 0.82 C37.41 24.85, 36.64 51.23, 37.14 70.25 M37.42 70.94 C30.42 68.94, 21.36 68.12, 0.51 68.26 M37.36 69.82 C26.01 68.89, 14.48 69.2, -0.5 70.36 M-0.33 69.13 C1.52 47.32, 0.68 26.01, -0.19 -1.95 M-0.31 70.19 C0.62 44.53, 0.81 17.97, 0.67 0.83" stroke="#1e1e1e" stroke-width="1" fill="none"></path></g><g stroke-linecap="round"><g transform="translate(562.8875628665364 609.5019907519215) rotate(0 13.612271651192884 0.21385059636213555)"><path d="M0.3 0.48 C4.82 0.21, 23.39 -0.49, 28.23 -0.44 M-1 -0.32 C3.23 0.09, 22.11 1, 27.1 0.86" stroke="#1e1e1e" stroke-width="1" fill="none"></path></g></g><mask></mask><g stroke-linecap="round"><g transform="translate(561.9756601677645 615.9057885295299) rotate(0 14.48409092982331 -0.5151459624213999)"><path d="M-0.34 -0.44 C4.49 -0.39, 24.41 0.75, 29.31 0.78 M1.68 -1.72 C6.39 -2.05, 24.27 -1.38, 28.75 -0.93" stroke="#1e1e1e" stroke-width="1" fill="none"></path></g></g><mask></mask><g stroke-linecap="round"><g transform="translate(562.1018960439969 622.3095863071392) rotate(0 14.371386383935146 0.4652696532626237)"><path d="M0.74 0.78 C5.64 0.81, 24.49 -0.27, 29.07 -0.25 M-0.33 0.14 C4.49 0.4, 23.78 1.35, 28.39 1.16" stroke="#1e1e1e" stroke-width="1" fill="none"></path></g></g><mask></mask><g stroke-linecap="round"><g transform="translate(562.0163606752267 628.713384084748) rotate(0 13.784779275819062 -0.3280509404352756)"><path d="M0.5 -0.25 C5.09 -0.23, 23.71 0.94, 28.26 0.88 M-0.69 -1.43 C3.64 -1.81, 21.99 -1.09, 27.15 -0.78" stroke="#1e1e1e" stroke-width="1" fill="none"></path></g></g><mask></mask><g stroke-linecap="round" transform="translate(583.557069621416 635.6416097807983) rotate(0 3.320581637643386 2.4149684637405926)"><path d="M1.71 -0.5 C2.47 -0.7, 4.22 -0.98, 4.81 -0.72 C5.41 -0.45, 5.13 0.47, 5.28 1.08 C5.43 1.69, 5.82 2.32, 5.72 2.94 C5.63 3.55, 5.02 4.64, 4.72 4.8 C4.42 4.95, 4.58 4.02, 3.91 3.88 C3.25 3.74, 1.23 4.19, 0.74 3.96 C0.25 3.74, 0.89 2.92, 0.96 2.52 C1.04 2.12, 0.97 1.94, 1.19 1.57 C1.42 1.19, 1.77 0.53, 2.3 0.26 C2.83 -0.02, 4.4 0.06, 4.36 -0.09 M2.05 1.4 C2.95 1.18, 5.52 0.23, 6.43 0.54 C7.35 0.84, 7.68 2.55, 7.55 3.24 C7.41 3.94, 6.33 4.41, 5.65 4.7 C4.96 4.99, 4.12 4.95, 3.43 4.98 C2.75 5.01, 2.16 4.92, 1.51 4.86 C0.85 4.8, -0.26 5.01, -0.49 4.63 C-0.72 4.25, -0.15 3.47, 0.14 2.6 C0.43 1.73, 0.74 -0.02, 1.24 -0.59 C1.74 -1.17, 2.98 -1.15, 3.15 -0.84 C3.32 -0.53, 2.22 1.27, 2.25 1.25" stroke="#1e1e1e" stroke-width="1" fill="none"></path></g><g stroke-linecap="round"><g transform="translate(185.16650473355276 379.7803196010489) rotate(0 159.65993936567975 -119.99201585071583)"><path d="M0 0 C53.22 -40, 266.1 -199.99, 319.32 -239.98 M0 0 C53.22 -40, 266.1 -199.99, 319.32 -239.98" stroke="#1e1e1e" stroke-width="1" fill="none"></path></g><g transform="translate(185.16650473355276 379.7803196010489) rotate(0 159.65993936567975 -119.99201585071583)"><path d="M0 0 L7.06 -13.24 L14.68 -3.1 L0 0" stroke="none" stroke-width="0" fill="#1e1e1e" fill-rule="evenodd"></path><path d="M0 0 C1.85 -3.47, 3.71 -6.95, 7.06 -13.24 M0 0 C2.22 -4.17, 4.44 -8.33, 7.06 -13.24 M7.06 -13.24 C9.19 -10.4, 11.32 -7.57, 14.68 -3.1 M7.06 -13.24 C9.14 -10.46, 11.22 -7.69, 14.68 -3.1 M14.68 -3.1 C11.21 -2.37, 7.74 -1.64, 0 0 M14.68 -3.1 C8.82 -1.86, 2.95 -0.62, 0 0 M0 0 C0 0, 0 0, 0 0 M0 0 C0 0, 0 0, 0 0" stroke="#1e1e1e" stroke-width="1" fill="none"></path></g><g transform="translate(185.16650473355276 379.7803196010489) rotate(0 159.65993936567975 -119.99201585071583)"><path d="M319.32 -239.98 L312.26 -226.75 L304.64 -236.88 L319.32 -239.98" stroke="none" stroke-width="0" fill="#1e1e1e" fill-rule="evenodd"></path><path d="M319.32 -239.98 C317.47 -236.51, 315.61 -233.04, 312.26 -226.75 M319.32 -239.98 C317.1 -235.82, 314.88 -231.65, 312.26 -226.75 M312.26 -226.75 C310.13 -229.58, 308 -232.42, 304.64 -236.88 M312.26 -226.75 C310.18 -229.52, 308.1 -232.29, 304.64 -236.88 M304.64 -236.88 C308.11 -237.62, 311.58 -238.35, 319.32 -239.98 M304.64 -236.88 C310.5 -238.12, 316.37 -239.36, 319.32 -239.98 M319.32 -239.98 C319.32 -239.98, 319.32 -239.98, 319.32 -239.98 M319.32 -239.98 C319.32 -239.98, 319.32 -239.98, 319.32 -239.98" stroke="#1e1e1e" stroke-width="1" fill="none"></path></g></g><mask></mask><g stroke-linecap="round"><g transform="translate(582.2335869847085 137.44835743728055) rotate(0 196.0283084165746 127.67823556197243)"><path d="M0 0 C65.34 42.56, 326.71 212.8, 392.06 255.36 M0 0 C65.34 42.56, 326.71 212.8, 392.06 255.36" stroke="#1e1e1e" stroke-width="1" fill="none"></path></g><g transform="translate(582.2335869847085 137.44835743728055) rotate(0 196.0283084165746 127.67823556197243)"><path d="M0 0 L14.85 2.11 L7.93 12.73 L0 0" stroke="none" stroke-width="0" fill="#1e1e1e" fill-rule="evenodd"></path><path d="M0 0 C5.28 0.75, 10.56 1.5, 14.85 2.11 M0 0 C3.31 0.47, 6.62 0.94, 14.85 2.11 M14.85 2.11 C12.3 6.02, 9.76 9.93, 7.93 12.73 M14.85 2.11 C12.27 6.06, 9.7 10.02, 7.93 12.73 M7.93 12.73 C6.17 9.9, 4.4 7.07, 0 0 M7.93 12.73 C5.43 8.71, 2.92 4.69, 0 0 M0 0 C0 0, 0 0, 0 0 M0 0 C0 0, 0 0, 0 0" stroke="#1e1e1e" stroke-width="1" fill="none"></path></g><g transform="translate(582.2335869847085 137.44835743728055) rotate(0 196.0283084165746 127.67823556197243)"><path d="M392.06 255.36 L377.21 253.25 L384.12 242.63 L392.06 255.36" stroke="none" stroke-width="0" fill="#1e1e1e" fill-rule="evenodd"></path><path d="M392.06 255.36 C386.78 254.61, 381.5 253.86, 377.21 253.25 M392.06 255.36 C388.75 254.89, 385.44 254.42, 377.21 253.25 M377.21 253.25 C379.75 249.34, 382.3 245.43, 384.12 242.63 M377.21 253.25 C379.78 249.29, 382.36 245.33, 384.12 242.63 M384.12 242.63 C385.89 245.46, 387.65 248.29, 392.06 255.36 M384.12 242.63 C386.63 246.64, 389.13 250.66, 392.06 255.36 M392.06 255.36 C392.06 255.36, 392.06 255.36, 392.06 255.36 M392.06 255.36 C392.06 255.36, 392.06 255.36, 392.06 255.36" stroke="#1e1e1e" stroke-width="1" fill="none"></path></g></g><mask></mask><g mask="url(#mask-GbSdS6Yq6-UdQ5oawE87V)" stroke-linecap="round"><g transform="translate(182.75 494.3786615818356) rotate(0 162.5 69.5)"><path d="M0 0 C54.17 23.17, 270.83 115.83, 325 139" stroke="#1e1e1e" stroke-width="1.5" fill="none" stroke-dasharray="8 9"></path></g><g transform="translate(182.75 494.3786615818356) rotate(0 162.5 69.5)"><path d="M0 0 L14.99 -0.48 L10.01 11.17 L0 0" stroke="none" stroke-width="0" fill="#1e1e1e" fill-rule="evenodd"></path><path d="M0 0 C4.83 -0.16, 9.66 -0.31, 14.99 -0.48 M14.99 -0.48 C13.49 3.03, 11.99 6.54, 10.01 11.17 M10.01 11.17 C6.6 7.37, 3.19 3.57, 0 0 M0 0 C0 0, 0 0, 0 0" stroke="#1e1e1e" stroke-width="1.5" fill="none"></path></g><g transform="translate(182.75 494.3786615818356) rotate(0 162.5 69.5)"><path d="M325 139 L310.01 139.48 L314.99 127.83 L325 139" stroke="none" stroke-width="0" fill="#1e1e1e" fill-rule="evenodd"></path><path d="M325 139 C320.17 139.16, 315.34 139.31, 310.01 139.48 M310.01 139.48 C311.51 135.97, 313.01 132.46, 314.99 127.83 M314.99 127.83 C318.4 131.63, 321.81 135.43, 325 139 M325 139 C325 139, 325 139, 325 139" stroke="#1e1e1e" stroke-width="1.5" fill="none"></path></g></g><mask id="mask-GbSdS6Yq6-UdQ5oawE87V"><rect x="0" y="0" fill="#fff" width="607.75" height="733.3786615818356"></rect><rect x="315.9583339691162" y="551.8786615818356" fill="#000" width="58.58333206176758" height="24" opacity="1"></rect></mask><g transform="translate(315.9583339691162 551.8786615818356) rotate(0 29.29166603088379 12)"><text x="29.29166603088379" y="0" font-family="Cascadia, Segoe UI Emoji" font-size="20px" fill="#1e1e1e" text-anchor="middle" style="white-space: pre;" direction="ltr" dominant-baseline="text-before-edge">Relay</text></g><g mask="url(#mask-S8gt1tOeStVyvCOc0VUjQ)" stroke-linecap="round"><g transform="translate(642.8662678423279 633.8105334344905) rotate(0 168.76207652013363 -87.99444764580801)"><path d="M0 0 C56.25 -29.33, 281.27 -146.66, 337.52 -175.99" stroke="#1e1e1e" stroke-width="1.5" fill="none" stroke-dasharray="8 9"></path></g><g transform="translate(642.8662678423279 633.8105334344905) rotate(0 168.76207652013363 -87.99444764580801)"><path d="M0 0 L9.12 -11.91 L14.99 -0.66 L0 0" stroke="none" stroke-width="0" fill="#1e1e1e" fill-rule="evenodd"></path><path d="M0 0 C2.85 -3.72, 5.7 -7.44, 9.12 -11.91 M9.12 -11.91 C10.43 -9.4, 11.74 -6.89, 14.99 -0.66 M14.99 -0.66 C11.44 -0.51, 7.9 -0.35, 0 0 M0 0 C0 0, 0 0, 0 0" stroke="#1e1e1e" stroke-width="1.5" fill="none"></path></g><g transform="translate(642.8662678423279 633.8105334344905) rotate(0 168.76207652013363 -87.99444764580801)"><path d="M337.52 -175.99 L328.4 -164.08 L322.54 -175.32 L337.52 -175.99" stroke="none" stroke-width="0" fill="#1e1e1e" fill-rule="evenodd"></path><path d="M337.52 -175.99 C334.67 -172.27, 331.82 -168.54, 328.4 -164.08 M328.4 -164.08 C327.09 -166.59, 325.78 -169.1, 322.54 -175.32 M322.54 -175.32 C326.08 -175.48, 329.62 -175.64, 337.52 -175.99 M337.52 -175.99 C337.52 -175.99, 337.52 -175.99, 337.52 -175.99" stroke="#1e1e1e" stroke-width="1.5" fill="none"></path></g></g><mask id="mask-S8gt1tOeStVyvCOc0VUjQ"><rect x="0" y="0" fill="#fff" width="1080.3904208825952" height="909.7994287261065"></rect><rect x="782.3366783315778" y="533.8160857886826" fill="#000" width="58.58333206176758" height="24" opacity="1"></rect></mask><g transform="translate(782.3366783315778 533.8160857886825) rotate(0 29.29166603088379 12)"><text x="29.29166603088379" y="0" font-family="Cascadia, Segoe UI Emoji" font-size="20px" fill="#1e1e1e" text-anchor="middle" style="white-space: pre;" direction="ltr" dominant-baseline="text-before-edge">Relay</text></g><g stroke-linecap="round"><g transform="translate(200.78074370295144 432.8907277857116) rotate(0 381.4590367102328 -5.574012407458667)"><path d="M0 0 C127.15 -1.86, 635.77 -9.29, 762.92 -11.15 M0 0 C127.15 -1.86, 635.77 -9.29, 762.92 -11.15" stroke="#1e1e1e" stroke-width="1" fill="none"></path></g><g transform="translate(200.78074370295144 432.8907277857116) rotate(0 381.4590367102328 -5.574012407458667)"><path d="M0 0 L13.5 -6.54 L13.69 6.14 L0 0" stroke="none" stroke-width="0" fill="#1e1e1e" fill-rule="evenodd"></path><path d="M0 0 C2.72 -1.32, 5.43 -2.63, 13.5 -6.54 M0 0 C3.27 -1.58, 6.54 -3.17, 13.5 -6.54 M13.5 -6.54 C13.54 -3.95, 13.58 -1.36, 13.69 6.14 M13.5 -6.54 C13.54 -3.83, 13.58 -1.13, 13.69 6.14 M13.69 6.14 C10 4.48, 6.31 2.83, 0 0 M13.69 6.14 C8.64 3.88, 3.59 1.61, 0 0 M0 0 C0 0, 0 0, 0 0 M0 0 C0 0, 0 0, 0 0" stroke="#1e1e1e" stroke-width="1" fill="none"></path></g><g transform="translate(200.78074370295144 432.8907277857116) rotate(0 381.4590367102328 -5.574012407458667)"><path d="M762.92 -11.15 L749.42 -4.61 L749.23 -17.29 L762.92 -11.15" stroke="none" stroke-width="0" fill="#1e1e1e" fill-rule="evenodd"></path><path d="M762.92 -11.15 C760.2 -9.83, 757.48 -8.52, 749.42 -4.61 M762.92 -11.15 C759.65 -9.56, 756.38 -7.98, 749.42 -4.61 M749.42 -4.61 C749.38 -7.2, 749.34 -9.79, 749.23 -17.29 M749.42 -4.61 C749.38 -7.31, 749.34 -10.02, 749.23 -17.29 M749.23 -17.29 C752.92 -15.63, 756.61 -13.98, 762.92 -11.15 M749.23 -17.29 C754.28 -15.02, 759.33 -12.76, 762.92 -11.15 M762.92 -11.15 C762.92 -11.15, 762.92 -11.15, 762.92 -11.15 M762.92 -11.15 C762.92 -11.15, 762.92 -11.15, 762.92 -11.15" stroke="#1e1e1e" stroke-width="1" fill="none"></path></g></g><mask></mask><g transform="translate(754.75 212.37866158183562) rotate(0 175.75 12)"><text x="0" y="0" font-family="Cascadia, Segoe UI Emoji" font-size="20px" fill="#1e1e1e" text-anchor="start" style="white-space: pre;" direction="ltr" dominant-baseline="text-before-edge">offer / answer / ice-candidate</text></g><g transform="translate(10 210.37866158183562) rotate(0 175.75 12)"><text x="0" y="0" font-family="Cascadia, Segoe UI Emoji" font-size="20px" fill="#1e1e1e" text-anchor="start" style="white-space: pre;" direction="ltr" dominant-baseline="text-before-edge">offer / answer / ice-candidate</text></g><g transform="translate(82.75 247.37866158183562) rotate(0 87.875 12)"><text x="0" y="0" font-family="Cascadia, Segoe UI Emoji" font-size="20px" fill="#1e1e1e" text-anchor="start" style="white-space: pre;" direction="ltr" dominant-baseline="text-before-edge">register-client</text></g><g transform="translate(845.875 246.37866158183562) rotate(0 76.15833282470703 12)"><text x="0" y="0" font-family="Cascadia, Segoe UI Emoji" font-size="20px" fill="#1e1e1e" text-anchor="start" style="white-space: pre;" direction="ltr" dominant-baseline="text-before-edge">register-host</text></g><g transform="translate(483.9603174603176 396.1564393596132) rotate(0 93.73332977294922 12)"><text x="0" y="0" font-family="Cascadia, Segoe UI Emoji" font-size="20px" fill="#1e1e1e" text-anchor="start" style="white-space: pre;" direction="ltr" dominant-baseline="text-before-edge">P2P data channel</text></g></svg>