<svg version="1.1" xmlns="http://www.w3.org/2000/svg" viewBox="0 0 1398.1069618684432 818.424603174603" width="1398.1069618684432" height="818.424603174603">
  <!-- svg-source:excalidraw -->
  
  <defs>
    <style class="style-fonts">
      @font-face {
        font-family: "Virgil";
        src: url("https://excalidraw.com/Virgil.woff2");
      }
      @font-face {
        font-family: "Cascadia";
        src: url("https://excalidraw.com/Cascadia.woff2");
      }
    </style>
    
  </defs>
  <rect x="0" y="0" width="1398.1069618684432" height="818.424603174603" fill="#ffffff"></rect><g transform="translate(635.9899977140612 11.666666666666686) rotate(0 99.59166717529297 12)"><text x="0" y="0" font-family="Cascadia, Segoe UI Emoji" font-size="20px" fill="#1e1e1e" text-anchor="start" style="white-space: pre;" direction="ltr" dominant-baseline="text-before-edge">Signalling server</text></g><g transform="translate(235.9899977140601 10) rotate(0 70.30000305175781 12)"><text x="0" y="0" font-family="Cascadia, Segoe UI Emoji" font-size="20px" fill="#1e1e1e" text-anchor="start" style="white-space: pre;" direction="ltr" dominant-baseline="text-before-edge">weave-mobile</text></g><g transform="translate(1073.0649972054343 17.999999999999943) rotate(0 29.29166603088379 12)"><text x="0" y="0" font-family="Cascadia, Segoe UI Emoji" font-size="20px" fill="#1e1e1e" text-anchor="start" style="white-space: pre;" direction="ltr" dominant-baseline="text-before-edge">weave</text></g><g stroke-linecap="round"><g transform="translate(728.8907913648545 53.424603174602964) rotate(0 -1.2158974706444496 305.1351318882888)"><path d="M0 0 C-0.41 101.71, -2.03 508.56, -2.43 610.27 M0 0 C-0.41 101.71, -2.03 508.56, -2.43 610.27" stroke="#1e1e1e" stroke-width="1" fill="none"></path></g></g><mask></mask><g stroke-linecap="round"><g transform="translate(1105.7657913648545 58.42460317460302) rotate(0 -1.875 375)"><path d="M0 0 C-0.63 125, -3.13 625, -3.75 750 M0 0 C-0.63 125, -3.13 625, -3.75 750" stroke="#1e1e1e" stroke-width="1" fill="none"></path></g></g><mask></mask><g stroke-linecap="round"><g transform="translate(303.68245803152104 51.34126984126959) rotate(0 -1.875 375)"><path d="M0 0 C-0.63 125, -3.13 625, -3.75 750 M0 0 C-0.63 125, -3.13 625, -3.75 750" stroke="#1e1e1e" stroke-width="1" fill="none"></path></g></g><mask></mask><g mask="url(#mask-EZWX7k4UjHQcvua8QNTaY)" stroke-linecap="round"><g transform="translate(1085.421047914098 93.56101329202602) rotate(0 -171.10119047619014 -0.625)"><path d="M0 0 C-57.03 -0.21, -285.17 -1.04, -342.2 -1.25" stroke="#1e1e1e" stroke-width="1.5" fill="none" stroke-dasharray="8 9"></path></g><g transform="translate(1085.421047914098 93.56101329202602) rotate(0 -171.10119047619014 -0.625)"><path d="M-342.2 -1.25 L-328.58 -7.54 L-328.63 5.14 L-342.2 -1.25" stroke="none" stroke-width="0" fill="#1e1e1e" fill-rule="evenodd"></path><path d="M-342.2 -1.25 C-339.2 -2.63, -336.21 -4.02, -328.58 -7.54 M-328.58 -7.54 C-328.6 -2.57, -328.62 2.4, -328.63 5.14 M-328.63 5.14 C-331.92 3.59, -335.2 2.05, -342.2 -1.25 M-342.2 -1.25 C-342.2 -1.25, -342.2 -1.25, -342.2 -1.25" stroke="#1e1e1e" stroke-width="1.5" fill="none"></path></g></g><mask id="mask-EZWX7k4UjHQcvua8QNTaY"><rect x="0" y="0" fill="#fff" width="1527.6234288664782" height="194.81101329202602"></rect><rect x="838.1615246132005" y="80.93601329202602" fill="#000" width="152.31666564941406" height="24" opacity="1"></rect></mask><g transform="translate(838.1615246132005 80.93601329202602) rotate(0 76.15833282470726 12)"><text x="76.15833282470703" y="0" font-family="Cascadia, Segoe UI Emoji" font-size="20px" fill="#1e1e1e" text-anchor="middle" style="white-space: pre;" direction="ltr" dominant-baseline="text-before-edge">register-host</text></g><g mask="url(#mask-jyvL4yvxBcz5ANyDnukaq)" stroke-linecap="round"><g transform="translate(320.0897044706162 193.89141839103678) rotate(0 192.5 -0.23809523809521238)"><path d="M0 0 C64.17 -0.08, 320.83 -0.4, 385 -0.48" stroke="#1e1e1e" stroke-width="1.5" fill="none" stroke-dasharray="8 9"></path></g><g transform="translate(320.0897044706162 193.89141839103678) rotate(0 192.5 -0.23809523809521238)"><path d="M385 -0.48 L371.41 5.88 L371.4 -6.8 L385 -0.48" stroke="none" stroke-width="0" fill="#1e1e1e" fill-rule="evenodd"></path><path d="M385 -0.48 C381.72 1.06, 378.43 2.6, 371.41 5.88 M371.41 5.88 C371.41 1.5, 371.4 -2.87, 371.4 -6.8 M371.4 -6.8 C375.85 -4.73, 380.3 -2.66, 385 -0.48 M385 -0.48 C385 -0.48, 385 -0.48, 385 -0.48" stroke="#1e1e1e" stroke-width="1.5" fill="none"></path></g></g><mask id="mask-jyvL4yvxBcz5ANyDnukaq"><rect x="0" y="0" fill="#fff" width="805.0897044706162" height="294.3676088672272"></rect><rect x="424.7147044706162" y="181.6533231529416" fill="#000" width="175.75" height="24" opacity="1"></rect></mask><g transform="translate(424.7147044706162 181.65332315294148) rotate(0 87.875 12.000000000000028)"><text x="87.875" y="0" font-family="Cascadia, Segoe UI Emoji" font-size="20px" fill="#1e1e1e" text-anchor="middle" style="white-space: pre;" direction="ltr" dominant-baseline="text-before-edge">register-client</text></g><g mask="url(#mask-XU-EEpKgN7Cba7Q6ujQE3)" stroke-linecap="round"><g transform="translate(743.8940264033067 195.24348071861328) rotate(0 171.42857142857133 0)"><path d="M0 0 C57.14 0, 285.71 0, 342.86 0" stroke="#1e1e1e" stroke-width="1.5" fill="none" stroke-dasharray="8 9"></path></g><g transform="translate(743.8940264033067 195.24348071861328) rotate(0 171.42857142857133 0)"><path d="M342.86 0 L329.26 6.34 L329.26 -6.34 L342.86 0" stroke="none" stroke-width="0" fill="#1e1e1e" fill-rule="evenodd"></path><path d="M342.86 0 C338.49 2.03, 334.13 4.07, 329.26 6.34 M329.26 6.34 C329.26 1.28, 329.26 -3.77, 329.26 -6.34 M329.26 -6.34 C334.25 -4.01, 339.24 -1.69, 342.86 0 M342.86 0 C342.86 0, 342.86 0, 342.86 0" stroke="#1e1e1e" stroke-width="1.5" fill="none"></path></g></g><mask id="mask-XU-EEpKgN7Cba7Q6ujQE3"><rect x="0" y="0" fill="#fff" width="1186.7511692604494" height="295.2434807186133"></rect><rect x="821.5892680589286" y="183.24348071861328" fill="#000" width="187.46665954589844" height="24" opacity="1"></rect></mask><g transform="translate(821.5892680589286 183.24348071861328) rotate(0 93.73332977294945 12)"><text x="93.73332977294922" y="0" font-family="Cascadia, Segoe UI Emoji" font-size="20px" fill="#1e1e1e" text-anchor="middle" style="white-space: pre;" direction="ltr" dominant-baseline="text-before-edge">client-connected</text></g><g mask="url(#mask-ldHIPUrBsJJ94ITSar-dX)" stroke-linecap="round"><g transform="translate(1081.5006097950672 299.66749980010457) rotate(0 -170.71428571428578 -0.7142857142856656)"><path d="M0 0 C-56.9 -0.24, -284.52 -1.19, -341.43 -1.43" stroke="#1e1e1e" stroke-width="1.5" fill="none" stroke-dasharray="8 9"></path></g><g transform="translate(1081.5006097950672 299.66749980010457) rotate(0 -170.71428571428578 -0.7142857142856656)"><path d="M-341.43 -1.43 L-327.81 -7.71 L-327.86 4.97 L-341.43 -1.43" stroke="none" stroke-width="0" fill="#1e1e1e" fill-rule="evenodd"></path><path d="M-341.43 -1.43 C-336.24 -3.82, -331.06 -6.21, -327.81 -7.71 M-327.81 -7.71 C-327.82 -4.77, -327.83 -1.83, -327.86 4.97 M-327.86 4.97 C-332.91 2.59, -337.96 0.21, -341.43 -1.43 M-341.43 -1.43 C-341.43 -1.43, -341.43 -1.43, -341.43 -1.43" stroke="#1e1e1e" stroke-width="1.5" fill="none"></path></g></g><mask id="mask-ldHIPUrBsJJ94ITSar-dX"><rect x="0" y="0" fill="#fff" width="1522.9291812236388" height="401.0960712286759"></rect><rect x="881.4946580498977" y="286.9532140858189" fill="#000" width="58.58333206176758" height="24" opacity="1"></rect></mask><g transform="translate(881.4946580498977 286.9532140858189) rotate(0 29.29166603088379 12)"><text x="29.29166603088379" y="0" font-family="Cascadia, Segoe UI Emoji" font-size="20px" fill="#1e1e1e" text-anchor="middle" style="white-space: pre;" direction="ltr" dominant-baseline="text-before-edge">offer</text></g><g mask="url(#mask-NnvtEVdm6s9ojvcm6neBR)" stroke-linecap="round"><g transform="translate(706.3350660606916 297.9434049127374) rotate(0 -195.08336011657093 0)"><path d="M0 0 C-65.03 0, -325.14 0, -390.17 0" stroke="#1e1e1e" stroke-width="1.5" fill="none" stroke-dasharray="8 9"></path></g><g transform="translate(706.3350660606916 297.9434049127374) rotate(0 -195.08336011657093 0)"><path d="M-390.17 0 L-376.57 -6.34 L-376.57 6.34 L-390.17 0" stroke="none" stroke-width="0" fill="#1e1e1e" fill-rule="evenodd"></path><path d="M-390.17 0 C-386.35 -1.78, -382.53 -3.56, -376.57 -6.34 M-376.57 -6.34 C-376.57 -2.12, -376.57 2.1, -376.57 6.34 M-376.57 6.34 C-380.05 4.72, -383.52 3.1, -390.17 0 M-390.17 0 C-390.17 0, -390.17 0, -390.17 0" stroke="#1e1e1e" stroke-width="1.5" fill="none"></path></g></g><mask id="mask-NnvtEVdm6s9ojvcm6neBR"><rect x="0" y="0" fill="#fff" width="1196.5017862938334" height="397.9434049127374"></rect><rect x="481.96003991323687" y="285.9434049127374" fill="#000" width="58.58333206176758" height="24" opacity="1"></rect></mask><g transform="translate(481.96003991323687 285.9434049127374) rotate(0 29.29166603088379 12)"><text x="29.29166603088379" y="0" font-family="Cascadia, Segoe UI Emoji" font-size="20px" fill="#1e1e1e" text-anchor="middle" style="white-space: pre;" direction="ltr" dominant-baseline="text-before-edge">offer</text></g><g mask="url(#mask-Mw5ALlGYkequT4APtXpsl)" stroke-linecap="round"><g transform="translate(323.73280397334497 390.2970469981086) rotate(0 192.4579385718838 0.6591025293557777)"><path d="M0 0 C64.15 0.22, 320.76 1.1, 384.92 1.32" stroke="#1e1e1e" stroke-width="1.5" fill="none" stroke-dasharray="8 9"></path></g><g transform="translate(323.73280397334497 390.2970469981086) rotate(0 192.4579385718838 0.6591025293557777)"><path d="M384.92 1.32 L371.3 7.61 L371.34 -5.07 L384.92 1.32" stroke="none" stroke-width="0" fill="#1e1e1e" fill-rule="evenodd"></path><path d="M384.92 1.32 C381.56 2.87, 378.21 4.42, 371.3 7.61 M371.3 7.61 C371.32 2.81, 371.33 -1.99, 371.34 -5.07 M371.34 -5.07 C374.93 -3.38, 378.52 -1.69, 384.92 1.32 M384.92 1.32 C384.92 1.32, 384.92 1.32, 384.92 1.32" stroke="#1e1e1e" stroke-width="1.5" fill="none"></path></g></g><mask id="mask-Mw5ALlGYkequT4APtXpsl"><rect x="0" y="0" fill="#fff" width="808.6486811171126" height="491.61525205682017"></rect><rect x="481.04074101935" y="378.9561495274644" fill="#000" width="70.30000305175781" height="24" opacity="1"></rect></mask><g transform="translate(481.04074101934975 378.9561495274644) rotate(0 35.15000152587902 12)"><text x="35.150001525878906" y="0" font-family="Cascadia, Segoe UI Emoji" font-size="20px" fill="#1e1e1e" text-anchor="middle" style="white-space: pre;" direction="ltr" dominant-baseline="text-before-edge">answer</text></g><g mask="url(#mask-H_SXoTExGxAOVZIlC86p6)" stroke-linecap="round"><g transform="translate(745.5584227610352 390.2970469981084) rotate(0 170.70755510314348 0.6591025293557777)"><path d="M0 0 C56.9 0.22, 284.51 1.1, 341.42 1.32" stroke="#1e1e1e" stroke-width="1.5" fill="none" stroke-dasharray="8 9"></path></g><g transform="translate(745.5584227610352 390.2970469981084) rotate(0 170.70755510314348 0.6591025293557777)"><path d="M341.42 1.32 L327.8 7.6 L327.85 -5.07 L341.42 1.32" stroke="none" stroke-width="0" fill="#1e1e1e" fill-rule="evenodd"></path><path d="M341.42 1.32 C338.36 2.73, 335.31 4.14, 327.8 7.6 M327.8 7.6 C327.81 3.54, 327.83 -0.53, 327.85 -5.07 M327.85 -5.07 C331.7 -3.26, 335.55 -1.44, 341.42 1.32 M341.42 1.32 C341.42 1.32, 341.42 1.32, 341.42 1.32" stroke="#1e1e1e" stroke-width="1.5" fill="none"></path></g></g><mask id="mask-H_SXoTExGxAOVZIlC86p6"><rect x="0" y="0" fill="#fff" width="1186.9735329673222" height="491.61525205681994"></rect><rect x="881.1159763382998" y="378.95614952746416" fill="#000" width="70.30000305175781" height="24" opacity="1"></rect></mask><g transform="translate(881.1159763382998 378.95614952746416) rotate(0 35.150001525878906 12)"><text x="35.150001525878906" y="0" font-family="Cascadia, Segoe UI Emoji" font-size="20px" fill="#1e1e1e" text-anchor="middle" style="white-space: pre;" direction="ltr" dominant-baseline="text-before-edge">answer</text></g><g transform="translate(10 288.7952574773205) rotate(0 128.88333129882812 12)"><text x="0" y="0" font-family="Cascadia, Segoe UI Emoji" font-size="20px" fill="#1e1e1e" text-anchor="start" style="white-space: pre;" direction="ltr" dominant-baseline="text-before-edge">setRemoteDescription()</text></g><g transform="translate(1130.340299270787 380.47756171655567) rotate(0 128.88333129882812 12)"><text x="0" y="0" font-family="Cascadia, Segoe UI Emoji" font-size="20px" fill="#1e1e1e" text-anchor="start" style="white-space: pre;" direction="ltr" dominant-baseline="text-before-edge">setRemoteDescription()</text></g><g mask="url(#mask-AniByxC-sMVzO5lBYEnOl)" stroke-linecap="round"><g transform="translate(1083.8878561407664 492.66102165929067) rotate(0 -170.04845257378793 -1.9773075880673332)"><path d="M0 0 C-56.68 -0.66, -283.41 -3.3, -340.1 -3.95" stroke="#1e1e1e" stroke-width="1.5" fill="none" stroke-dasharray="8 9"></path></g><g transform="translate(1083.8878561407664 492.66102165929067) rotate(0 -170.04845257378793 -1.9773075880673332)"><path d="M-340.1 -3.95 L-326.43 -10.14 L-326.58 2.54 L-340.1 -3.95" stroke="none" stroke-width="0" fill="#1e1e1e" fill-rule="evenodd"></path><path d="M-340.1 -3.95 C-337.3 -5.22, -334.49 -6.49, -326.43 -10.14 M-326.43 -10.14 C-326.49 -5.18, -326.54 -0.22, -326.58 2.54 M-326.58 2.54 C-331.59 0.13, -336.61 -2.28, -340.1 -3.95 M-340.1 -3.95 C-340.1 -3.95, -340.1 -3.95, -340.1 -3.95" stroke="#1e1e1e" stroke-width="1.5" fill="none"></path></g></g><mask id="mask-AniByxC-sMVzO5lBYEnOl"><rect x="0" y="0" fill="#fff" width="1523.9847612883423" height="596.6156368354253"></rect><rect x="837.6810707422715" y="478.68371407122345" fill="#000" width="152.31666564941406" height="24" opacity="1"></rect></mask><g transform="translate(837.6810707422715 478.6837140712232) rotate(0 76.15833282470703 12)"><text x="76.15833282470703" y="0" font-family="Cascadia, Segoe UI Emoji" font-size="20px" fill="#1e1e1e" text-anchor="middle" style="white-space: pre;" direction="ltr" dominant-baseline="text-before-edge">ice-candidate</text></g><g mask="url(#mask-7h3NSdPsPEOVrn0NAFCjR)" stroke-linecap="round"><g transform="translate(702.9265941731333 488.706406483156) rotate(0 -193.11704110123947 -1.3182050587114986)"><path d="M0 0 C-64.37 -0.44, -321.86 -2.2, -386.23 -2.64" stroke="#1e1e1e" stroke-width="1.5" fill="none" stroke-dasharray="8 9"></path></g><g transform="translate(702.9265941731333 488.706406483156) rotate(0 -193.11704110123947 -1.3182050587114986)"><path d="M-386.23 -2.64 L-372.6 -8.88 L-372.68 3.8 L-386.23 -2.64" stroke="none" stroke-width="0" fill="#1e1e1e" fill-rule="evenodd"></path><path d="M-386.23 -2.64 C-381.99 -4.58, -377.75 -6.52, -372.6 -8.88 M-372.6 -8.88 C-372.62 -6.07, -372.63 -3.26, -372.68 3.8 M-372.68 3.8 C-377.05 1.72, -381.41 -0.35, -386.23 -2.64 M-386.23 -2.64 C-386.23 -2.64, -386.23 -2.64, -386.23 -2.64" stroke="#1e1e1e" stroke-width="1.5" fill="none"></path></g></g><mask id="mask-7h3NSdPsPEOVrn0NAFCjR"><rect x="0" y="0" fill="#fff" width="1189.1606763756122" height="591.342816600579"></rect><rect x="433.65122024718676" y="475.38820142444433" fill="#000" width="152.31666564941406" height="24" opacity="1"></rect></mask><g transform="translate(433.65122024718676 475.38820142444433) rotate(0 76.15833282470703 12.000000000000057)"><text x="76.15833282470703" y="0" font-family="Cascadia, Segoe UI Emoji" font-size="20px" fill="#1e1e1e" text-anchor="middle" style="white-space: pre;" direction="ltr" dominant-baseline="text-before-edge">ice-candidate</text></g><g transform="translate(91.2794469309822 472.8879457786177) rotate(0 82.01667022705078 12)"><text x="0" y="0" font-family="Cascadia, Segoe UI Emoji" font-size="20px" fill="#1e1e1e" text-anchor="start" style="white-space: pre;" direction="ltr" dominant-baseline="text-before-edge">addCandidate()</text></g><g mask="url(#mask-bvjlEe1lnbDSA00J97c7T)" stroke-linecap="round"><g transform="translate(702.2674916437772 584.9353757690978) rotate(0 -193.11704110123947 -1.3182050587114986)"><path d="M0 0 C-64.37 -0.44, -321.86 -2.2, -386.23 -2.64" stroke="#1e1e1e" stroke-width="1.5" fill="none" stroke-dasharray="8 9"></path></g><g transform="translate(702.2674916437772 584.9353757690978) rotate(0 -193.11704110123947 -1.3182050587114986)"><path d="M0 0 L-13.64 6.25 L-13.55 -6.43 L0 0" stroke="none" stroke-width="0" fill="#1e1e1e" fill-rule="evenodd"></path><path d="M0 0 C-4.9 2.24, -9.8 4.49, -13.64 6.25 M-13.64 6.25 C-13.61 2.75, -13.59 -0.75, -13.55 -6.43 M-13.55 -6.43 C-10.29 -4.88, -7.02 -3.33, 0 0 M0 0 C0 0, 0 0, 0 0" stroke="#1e1e1e" stroke-width="1.5" fill="none"></path></g></g><mask id="mask-bvjlEe1lnbDSA00J97c7T"><rect x="0" y="0" fill="#fff" width="1188.5015738462562" height="687.5717858865208"></rect><rect x="432.99211771783075" y="571.6171707103864" fill="#000" width="152.31666564941406" height="24" opacity="1"></rect></mask><g transform="translate(432.99211771783075 571.6171707103864) rotate(0 76.15833282470703 11.999999999999943)"><text x="76.15833282470703" y="0" font-family="Cascadia, Segoe UI Emoji" font-size="20px" fill="#1e1e1e" text-anchor="middle" style="white-space: pre;" direction="ltr" dominant-baseline="text-before-edge">ice-candidate</text></g><g mask="url(#mask-oJBf3pKouXXc-GLrPWohW)" stroke-linecap="round"><g transform="translate(1084.5469586701224 590.2081960039442) rotate(0 -168.73024751507614 -2.636410117423054)"><path d="M0 0 C-56.24 -0.88, -281.22 -4.39, -337.46 -5.27" stroke="#1e1e1e" stroke-width="1.5" fill="none" stroke-dasharray="8 9"></path></g><g transform="translate(1084.5469586701224 590.2081960039442) rotate(0 -168.73024751507614 -2.636410117423054)"><path d="M0 0 L-13.69 6.13 L-13.49 -6.55 L0 0" stroke="none" stroke-width="0" fill="#1e1e1e" fill-rule="evenodd"></path><path d="M0 0 C-2.83 1.27, -5.66 2.53, -13.69 6.13 M-13.69 6.13 C-13.62 1.23, -13.54 -3.67, -13.49 -6.55 M-13.49 -6.55 C-9.06 -4.4, -4.62 -2.24, 0 0 M0 0 C0 0, 0 0, 0 0" stroke="#1e1e1e" stroke-width="1.5" fill="none"></path></g></g><mask id="mask-oJBf3pKouXXc-GLrPWohW"><rect x="0" y="0" fill="#fff" width="1522.0074537002747" height="695.4810162387903"></rect><rect x="839.6583783303395" y="575.571785886521" fill="#000" width="152.31666564941406" height="24" opacity="1"></rect></mask><g transform="translate(839.6583783303395 575.571785886521) rotate(0 76.1583328247068 12.000000000000057)"><text x="76.15833282470703" y="0" font-family="Cascadia, Segoe UI Emoji" font-size="20px" fill="#1e1e1e" text-anchor="middle" style="white-space: pre;" direction="ltr" dominant-baseline="text-before-edge">ice-candidate</text></g><g transform="translate(1138.9645120197147 579.5264010626556) rotate(0 82.01667022705078 12)"><text x="0" y="0" font-family="Cascadia, Segoe UI Emoji" font-size="20px" fill="#1e1e1e" text-anchor="start" style="white-space: pre;" direction="ltr" dominant-baseline="text-before-edge">addCandidate()</text></g><g transform="translate(1133.089077643076 183.51065248978722) rotate(0 111.30833435058594 12)"><text x="0" y="0" font-family="Cascadia, Segoe UI Emoji" font-size="20px" fill="#1e1e1e" text-anchor="start" style="white-space: pre;" direction="ltr" dominant-baseline="text-before-edge">createDataChannel()</text></g><g transform="translate(608.4434642758861 683.1103697414582) rotate(0 117.16666412353516 12)"><text x="0" y="0" font-family="Cascadia, Segoe UI Emoji" font-size="20px" fill="#1e1e1e" text-anchor="start" style="white-space: pre;" direction="ltr" dominant-baseline="text-before-edge">Data channel is open</text></g><g mask="url(#mask-sUT4R6sHn43RzqM2c-4Um)" stroke-linecap="round"><g transform="translate(327.66578677032976 756.9298530293037) rotate(0 377.00664679149827 0)"><path d="M0 0 C125.67 0, 628.34 0, 754.01 0" stroke="#1e1e1e" stroke-width="1.5" fill="none" stroke-dasharray="8 9"></path></g><g transform="translate(327.66578677032976 756.9298530293037) rotate(0 377.00664679149827 0)"><path d="M0 0 L13.59 -6.34 L13.59 6.34 L0 0" stroke="none" stroke-width="0" fill="#1e1e1e" fill-rule="evenodd"></path><path d="M0 0 C5.13 -2.39, 10.27 -4.79, 13.59 -6.34 M13.59 -6.34 C13.59 -3.35, 13.59 -0.35, 13.59 6.34 M13.59 6.34 C9.7 4.52, 5.81 2.71, 0 0 M0 0 C0 0, 0 0, 0 0" stroke="#1e1e1e" stroke-width="1.5" fill="none"></path></g><g transform="translate(327.66578677032976 756.9298530293037) rotate(0 377.00664679149827 0)"><path d="M754.01 0 L740.42 6.34 L740.42 -6.34 L754.01 0" stroke="none" stroke-width="0" fill="#1e1e1e" fill-rule="evenodd"></path><path d="M754.01 0 C748.88 2.39, 743.75 4.79, 740.42 6.34 M740.42 6.34 C740.42 3.35, 740.42 0.35, 740.42 -6.34 M740.42 -6.34 C744.31 -4.52, 748.2 -2.71, 754.01 0 M754.01 0 C754.01 0, 754.01 0, 754.01 0" stroke="#1e1e1e" stroke-width="1.5" fill="none"></path></g></g><mask id="mask-sUT4R6sHn43RzqM2c-4Um"><rect x="0" y="0" fill="#fff" width="1181.6790803533263" height="856.9298530293037"></rect><rect x="575.7891022630001" y="744.9298530293036" fill="#000" width="257.76666259765625" height="24" opacity="1"></rect></mask><g transform="translate(575.7891022630001 744.9298530293036) rotate(0 128.8833312988279 12)"><text x="128.88333129882812" y="0" font-family="Cascadia, Segoe UI Emoji" font-size="20px" fill="#1e1e1e" text-anchor="middle" style="white-space: pre;" direction="ltr" dominant-baseline="text-before-edge">Peer to peer messaging</text></g></svg>